<svg xmlns="http://www.w3.org/2000/svg" version="1.1" xmlns:xlink="http://www.w3.org/1999/xlink" xmlns:svgjs="http://svgjs.dev/svgjs" width="1500" height="1500" viewBox="0 0 1500 1500"><g transform="matrix(0.6666666666666666,0,0,0.6666666666666666,249.39393939393938,458.3125412505128)"><svg viewBox="0 0 396 231" data-background-color="#e0ded5" preserveAspectRatio="xMidYMid meet" height="875" width="1500" xmlns="http://www.w3.org/2000/svg" xmlns:xlink="http://www.w3.org/1999/xlink"><g id="tight-bounds" transform="matrix(1,0,0,1,0.2400000000000091,0.008233664796932771)"><svg viewBox="0 0 395.52 230.98353267040613" height="230.98353267040613" width="395.52"><g><svg viewBox="0 0 395.52 230.98353267040613" height="230.98353267040613" width="395.52"><g transform="matrix(1,0,0,1,0,142.7570897900596)"><svg viewBox="0 0 395.52 88.22644288034653" height="88.22644288034653" width="395.52"><g id="textblocktransform"><svg viewBox="0 0 395.52 88.22644288034653" height="88.22644288034653" width="395.52" id="textblock"><g><svg viewBox="0 0 395.52 88.22644288034653" height="88.22644288034653" width="395.52"><g transform="matrix(1,0,0,1,0,0)"><svg width="395.52" viewBox="2.05 -40.35 184.67999999999998 41.2" height="88.22644288034653" data-palette-color="#111111"><path d="M21.55-26.55L21.55 0 14.95 0 14.65-3.05Q12.25 0.85 8.3 0.85L8.3 0.85Q5.4 0.85 3.73-1.25 2.05-3.35 2.05-6.8L2.05-6.8 2.05-26.55 9.6-26.55 9.6-7.1Q9.6-5.95 10-5.35 10.4-4.75 11.15-4.75L11.15-4.75Q12.75-4.75 14-7.55L14-7.55 14-26.55 21.55-26.55ZM34.15-27.4Q36.6-27.4 38.75-26.55 40.9-25.7 42.5-24.15L42.5-24.15 39.75-20.1Q37-22 34.8-22L34.8-22Q33.6-22 32.92-21.4 32.25-20.8 32.25-19.75L32.25-19.75Q32.25-18.6 33.1-17.88 33.95-17.15 36.75-16L36.75-16Q40.1-14.6 41.7-12.75 43.3-10.9 43.3-7.8L43.3-7.8Q43.3-3.8 40.47-1.48 37.65 0.85 33.15 0.85L33.15 0.85Q30.35 0.85 27.9-0.18 25.45-1.2 23.7-3.05L23.7-3.05 27.25-6.95Q30.25-4.5 32.75-4.5L32.75-4.5Q34.1-4.5 34.87-5.2 35.65-5.9 35.65-7.15L35.65-7.15Q35.65-8.55 34.77-9.38 33.9-10.2 31.2-11.3L31.2-11.3Q27.8-12.7 26.3-14.53 24.8-16.35 24.8-19.2L24.8-19.2Q24.8-22.8 27.3-25.1 29.8-27.4 34.15-27.4L34.15-27.4ZM66.34-13.8Q66.34-12.2 66.2-11.05L66.2-11.05 52.7-11.05Q52.95-7.45 54.02-6.08 55.1-4.7 57.15-4.7L57.15-4.7Q58.5-4.7 59.75-5.23 61-5.75 62.45-6.85L62.45-6.85 65.55-2.75Q61.84 0.85 56.6 0.85L56.6 0.85Q51 0.85 48.1-2.83 45.2-6.5 45.2-13.1L45.2-13.1Q45.2-19.7 47.97-23.55 50.75-27.4 55.9-27.4L55.9-27.4Q60.8-27.4 63.57-23.93 66.34-20.45 66.34-13.8L66.34-13.8ZM59-15.6L59-15.95Q59-19.35 58.32-20.88 57.65-22.4 55.95-22.4L55.95-22.4Q54.45-22.4 53.67-20.93 52.9-19.45 52.7-15.6L52.7-15.6 59-15.6ZM82.94-35.5Q88.59-35.5 92.79-31.3L92.79-31.3 89.04-27.35Q87.49-28.65 86.22-29.23 84.94-29.8 83.29-29.8L83.29-29.8Q80.09-29.8 78.49-27.05 76.89-24.3 76.89-17.35L76.89-17.35Q76.89-12.45 77.44-9.75 77.99-7.05 79.09-6 80.19-4.95 81.99-4.95L81.99-4.95Q83.84-4.95 85.44-6L85.44-6 85.44-14.3 82.14-14.3 81.39-19.85 92.84-19.85 92.84-2.75Q90.59-1.1 87.74-0.15 84.89 0.8 82.14 0.8L82.14 0.8Q75.29 0.8 72.04-3.6 68.79-8 68.79-17.35L68.79-17.35Q68.79-23.4 70.62-27.48 72.44-31.55 75.64-33.52 78.84-35.5 82.94-35.5L82.94-35.5ZM116.19-26.55L116.19 0 109.59 0 109.29-3.05Q106.89 0.85 102.94 0.85L102.94 0.85Q100.04 0.85 98.37-1.25 96.69-3.35 96.69-6.8L96.69-6.8 96.69-26.55 104.24-26.55 104.24-7.1Q104.24-5.95 104.64-5.35 105.04-4.75 105.79-4.75L105.79-4.75Q107.39-4.75 108.64-7.55L108.64-7.55 108.64-26.55 116.19-26.55ZM120.69-26.55L128.24-26.55 128.24 0 120.69 0 120.69-26.55ZM124.39-40.35Q126.34-40.35 127.51-39.13 128.69-37.9 128.69-36L128.69-36Q128.69-34.15 127.49-32.93 126.29-31.7 124.39-31.7L124.39-31.7Q122.49-31.7 121.29-32.93 120.09-34.15 120.09-36L120.09-36Q120.09-37.9 121.29-39.13 122.49-40.35 124.39-40.35L124.39-40.35ZM144.74-5.85L147.24-1.25Q145.99-0.2 144.34 0.33 142.69 0.85 140.99 0.85L140.99 0.85Q137.13 0.85 135.19-1.35 133.24-3.55 133.24-7.25L133.24-7.25 133.24-21.25 130.49-21.25 130.49-26.55 133.24-26.55 133.24-32.35 140.78-33.2 140.78-26.55 145.74-26.55 144.94-21.25 140.78-21.25 140.78-7.3Q140.78-5.15 142.59-5.15L142.59-5.15Q143.59-5.15 144.74-5.85L144.74-5.85ZM167.18-7.05Q167.18-5.8 167.48-5.2 167.78-4.6 168.53-4.25L168.53-4.25 166.98 0.7Q164.83 0.5 163.46-0.33 162.08-1.15 161.33-2.9L161.33-2.9Q159.03 0.85 154.78 0.85L154.78 0.85Q151.48 0.85 149.53-1.43 147.58-3.7 147.58-7.45L147.58-7.45Q147.58-11.8 150.28-14.08 152.98-16.35 158.18-16.35L158.18-16.35 159.78-16.35 159.78-17.75Q159.78-20.15 159.06-21.08 158.33-22 156.48-22L156.48-22Q154.18-22 150.78-20.65L150.78-20.65 149.08-25.45Q151.13-26.4 153.46-26.9 155.78-27.4 157.88-27.4L157.88-27.4Q162.58-27.4 164.88-25.13 167.18-22.85 167.18-18.15L167.18-18.15 167.18-7.05ZM157.08-4.5Q157.93-4.5 158.63-5.15 159.33-5.8 159.78-7L159.78-7 159.78-12.15 158.88-12.15Q156.83-12.15 155.91-11.18 154.98-10.2 154.98-8.1L154.98-8.1Q154.98-6.35 155.53-5.43 156.08-4.5 157.08-4.5L157.08-4.5ZM184.63-27.3Q185.68-27.3 186.73-26.9L186.73-26.9 185.48-19.65Q184.58-19.95 183.63-19.95L183.63-19.95Q181.78-19.95 180.85-18.53 179.93-17.1 179.33-14.25L179.33-14.25 179.33 0 171.78 0 171.78-26.55 178.33-26.55 178.88-22.2Q180.78-27.3 184.63-27.3L184.63-27.3Z" opacity="1" transform="matrix(1,0,0,1,0,0)" fill="#ffffff" class="wordmark-text-0" data-fill-palette-color="primary" id="text-0"></path></svg></g></svg></g></svg></g></svg></g><g transform="matrix(1,0,0,1,135.8083132725825,0)"><svg viewBox="0 0 123.90337345483496 121.92894406063893" height="121.92894406063893" width="123.90337345483496"><g><svg xmlns="http://www.w3.org/2000/svg" xmlns:xlink="http://www.w3.org/1999/xlink" version="1.1" x="0" y="0" viewBox="8.666850524325506 7.629000000000001 84.3881494756745 83.04340446832958" enable-background="new 0 0 100 100" xml:space="preserve" height="121.92894406063893" width="123.90337345483496" class="icon-icon-0" data-fill-palette-color="accent" id="icon-0"><path fill="#ffffff" d="M93.055 14.257c0 0-0.873-0.697-1.256-1.43-0.081-0.156-0.147-0.318-0.205-0.485-0.085-0.251-0.141-0.513-0.203-0.77-0.065-0.267-0.145-0.543-0.377-0.714-0.154-0.113-0.354-0.183-0.547-0.16-0.155 0.017-0.455 0.122-0.497-0.119-0.021-0.118 0.013-0.237 0.022-0.354 0.013-0.119-0.005-0.238-0.049-0.35-0.057-0.147-0.159-0.289-0.29-0.379-0.349-0.245-1.062-0.228-1.796-0.611-0.732-0.384-1.43-1.256-1.43-1.256l-0.349 0.802c-0.394 0.766-0.874 1.483-1.395 2.157l-0.219-0.22 0.027-0.027c0.063-0.064 0.062-0.169-0.001-0.233-0.024-0.024-0.053-0.038-0.083-0.045l0.04-0.434-0.727-0.894c0 0-0.481 0.536-0.749 0.419L82.92 9.21c0.117 0.267-0.42 0.748-0.42 0.748l0.894 0.729 0.437-0.042c0.006 0.031 0.021 0.06 0.044 0.084 0.064 0.064 0.169 0.064 0.234 0l0.027-0.028 0.261 0.26c-0.511 0.624-1.056 1.196-1.604 1.722l-0.319-0.319 0.027-0.028c0.063-0.064 0.063-0.169-0.001-0.233-0.023-0.024-0.051-0.04-0.082-0.045l0.041-0.436-0.728-0.893c0 0-0.48 0.536-0.749 0.419L80.929 11.2c0.117 0.268-0.418 0.748-0.418 0.748l0.892 0.73 0.436-0.042c0.007 0.031 0.021 0.059 0.045 0.083 0.064 0.064 0.169 0.065 0.234 0l0.027-0.028 0.312 0.312c-0.668 0.614-1.329 1.15-1.928 1.599l-0.146-0.147 0.027-0.028c0.064-0.064 0.063-0.169-0.001-0.233-0.023-0.023-0.053-0.038-0.082-0.044l0.04-0.436-0.729-0.892c0 0-0.479 0.536-0.749 0.419l-0.053 0.053c0.118 0.268-0.419 0.748-0.419 0.748l0.894 0.729 0.435-0.041c0.007 0.03 0.021 0.059 0.045 0.083 0.064 0.064 0.169 0.065 0.233 0l0.028-0.027 0.096 0.097c-1.188 0.859-2.049 1.336-2.049 1.336 0.389 2.691-0.947 4.074-0.947 4.074L47.82 48.087c-0.825-0.844-1.74-1.659-2.708-2.336-1.606-1.121-3.463-1.766-5.436-1.667-1.713 0.086-3.259 0.98-4.437 2.19-1.488 1.527-1.854 3.525-2.731 5.385-0.546 1.157-1.509 2.154-2.608 2.799-3.175 1.866-7.229 1.148-10.636 2.303-1.042 0.353-2.083 0.818-3.04 1.361-3.631 2.063-6.242 5.384-7.224 9.451-0.333 1.375-0.401 2.957-0.272 4.361 0.135 1.475 0.526 3.012 1.075 4.384 1.974 4.942 6.478 9.562 11.006 12.278 1.208 0.725 2.648 1.288 4.035 1.632 0.144 0.035 0.287 0.068 0.431 0.1 6.21 1.345 12.611-1.32 15.946-6.761 1.837-2.995 2.587-6.361 2.763-9.834 0.244-4.824 2.104-5.755 3.836-6.44 1.732-0.687 5.012-1.15 6.58-3.278 1.571-2.127 0.722-2.651-0.674-2.465-1.225 0.164-2.226 0.507-3.396-0.107-0.963-0.506-1.718-1.416-2.12-2.418-0.578-1.442 0.357-2.99 1.354-4.008 0.031-0.031 30.831-31.481 30.831-31.481s1.382-1.337 4.073-0.948c0 0 0.478-0.862 1.337-2.049l0.172 0.172-0.028 0.028c-0.062 0.063-0.063 0.169 0.002 0.233 0.022 0.023 0.053 0.039 0.082 0.045l-0.04 0.435 0.728 0.894c0 0 0.48-0.536 0.749-0.419l0.053-0.054c-0.117-0.268 0.42-0.748 0.42-0.748l-0.893-0.729-0.436 0.041c-0.007-0.029-0.022-0.06-0.045-0.082-0.065-0.065-0.169-0.066-0.234-0.001l-0.027 0.028-0.223-0.223c0.425-0.567 0.931-1.189 1.503-1.82l0.382 0.381-0.027 0.028c-0.065 0.065-0.065 0.169 0 0.234 0.022 0.022 0.053 0.039 0.083 0.044l-0.042 0.436 0.729 0.892c0 0 0.48-0.536 0.748-0.419l0.052-0.052c-0.115-0.269 0.421-0.749 0.421-0.749l-0.893-0.729-0.437 0.042c-0.006-0.03-0.022-0.06-0.046-0.083-0.063-0.065-0.167-0.065-0.232 0l-0.027 0.028-0.393-0.393c0.551-0.583 1.157-1.165 1.819-1.708l0.337 0.335-0.027 0.028c-0.064 0.065-0.064 0.17 0 0.234 0.021 0.023 0.053 0.039 0.083 0.044l-0.041 0.437 0.727 0.893c0 0 0.481-0.537 0.749-0.419l0.054-0.054c-0.117-0.268 0.419-0.748 0.419-0.748l-0.893-0.728-0.436 0.04c-0.006-0.03-0.022-0.06-0.044-0.083-0.064-0.064-0.17-0.064-0.234 0l-0.027 0.028L90.096 16c0.672-0.521 1.39-1.001 2.156-1.394L93.055 14.257zM38.138 48.644c0.751-0.751 1.969-0.75 2.721 0.001 0.751 0.75 0.751 1.968 0 2.719-0.751 0.752-1.969 0.752-2.72 0C37.387 50.614 37.387 49.396 38.138 48.644zM37.617 57.478c0.318-0.319 0.796-0.354 1.169-0.14-0.215-0.372-0.18-0.851 0.139-1.168 0.38-0.381 0.996-0.382 1.376-0.001l3.821 3.821c0.381 0.38 0.381 0.996 0.001 1.378-0.32 0.317-0.799 0.352-1.172 0.136 0.218 0.371 0.184 0.851-0.136 1.171-0.38 0.379-0.998 0.379-1.378 0l-3.82-3.821C37.235 58.473 37.237 57.857 37.617 57.478zM28.359 84.776c-0.539 0.538-1.412 0.539-1.952-0.001-0.539-0.538-0.539-1.412 0-1.952 0.54-0.538 1.414-0.538 1.952 0C28.899 83.364 28.898 84.237 28.359 84.776zM30.383 78.848c0.539-0.539 1.414-0.539 1.952-0.001 0.541 0.541 0.54 1.414 0 1.953s-1.413 0.541-1.953 0C29.843 80.262 29.843 79.388 30.383 78.848zM33.695 86.137c-0.539 0.538-1.414 0.539-1.953 0-0.539-0.54-0.54-1.415 0-1.954 0.539-0.538 1.414-0.538 1.953 0C34.235 84.722 34.234 85.597 33.695 86.137zM33.839 71.65c-0.38 0.379-0.997 0.378-1.377-0.001l-3.82-3.82c-0.381-0.381-0.38-0.998 0-1.378 0.318-0.319 0.797-0.354 1.17-0.137-0.218-0.372-0.183-0.852 0.137-1.17 0.379-0.381 0.996-0.381 1.375-0.001l3.821 3.822c0.381 0.379 0.381 0.995 0 1.377-0.319 0.318-0.799 0.352-1.171 0.135C34.194 70.851 34.159 71.329 33.839 71.65zM37.671 82.161c-0.539 0.538-1.414 0.538-1.953-0.001-0.539-0.538-0.54-1.414 0-1.953s1.415-0.538 1.954 0C38.211 80.746 38.211 81.62 37.671 82.161zM46.142 64.534c-0.283 0.714-0.645 1.399-0.958 2.099-0.346 0.771-0.687 1.543-1.026 2.314-0.403 0.915-0.803 1.832-1.202 2.747-0.392 0.899-0.783 1.801-1.174 2.7-0.248 0.57-0.495 1.142-0.742 1.712-0.204 0.475-0.388 0.968-0.642 1.419-0.184 0.333-0.42 0.635-0.725 0.864-0.306 0.228-0.697 0.358-1.079 0.273-0.207-0.046-0.407-0.174-0.557-0.323-0.424-0.419-0.752-0.954-1.118-1.424-0.383-0.486-0.772-0.967-1.174-1.439-0.245-0.289-0.497-0.568-0.765-0.837-0.036-0.036-0.07-0.071-0.106-0.108-0.266-0.279-0.508-0.591-0.559-0.985-0.05-0.396 0.074-0.803 0.297-1.13 0.134-0.195 0.295-0.386 0.464-0.554 1.66-1.66 10.263-10.264 10.263-10.264s0.45-0.436 0.449 0.062c0 0.328 0.059 0.657 0.171 0.965 0.106 0.289 0.315 0.546 0.374 0.848C46.402 63.823 46.27 64.215 46.142 64.534z" data-fill-palette-color="accent"></path></svg></g></svg></g><g></g></svg></g><defs></defs></svg><rect width="395.52" height="230.98353267040613" fill="none" stroke="none" visibility="hidden"></rect></g></svg></g></svg>